<svg xmlns="http://www.w3.org/2000/svg" data-name="Layer 1" viewBox="0 0 2800 2800"><path fill="#ffffff" d="M577.31 1636.917a463.557 463.557 0 0 1-18.856 53.016q8.882-26.713 18.856-53.016Z" class="colorfff svgShape"/><path fill="#ffffff" d="M2219.2 1692.354c-713.714 263.623-1444.78 67.272-1660.761-2.414 84.95-199.728-6.403-370.182 87.22-486.483 160.018-198.777 505.352-247.817 742.727-247.817 249.042 0 623.898 32.787 785.962 247.817 83.29 110.511.291 353.638 44.851 488.897Z" class="colorfff svgShape"/><path fill="#ffffff" d="M2282.134 2070.878c0 287.489-115.323 440.752-298.511 521.05-158.047 69.277-366.604 47.825-595.202 47.825-219.169 0-419.938 22.682-575.388-39.535-194.62-77.838-318.278-231.649-318.278-529.34 0-107.946 16.26-217.622 46.275-324.018q8.061-28.626 17.444-56.933a463.542 463.542 0 0 0 18.856-53.016c14.666-50.602 19.54-99.018 20.997-144.93 3.78-114.503-13.527-212.929 47.368-288.536 158.047-196.35 496.912-246.588 733.936-247.773 2.96-.045 5.875-.045 8.79-.045s5.876 0 8.836.045c249.003.73 616.973 35.254 777.114 247.773 36.574 48.507 41.083 122.566 38.396 201.862-3.416 101.295-18.538 211.153 6.468 287.034a1274.277 1274.277 0 0 1 34.023 123.476c18.856 84.489 28.876 170.344 28.876 255.06Z" class="colorfff svgShape"/><path fill="#371a45" d="M2282.134 2070.878c0 287.489-115.323 440.752-298.511 521.05-158.047 69.277-366.604 47.825-595.202 47.825-219.169 0-419.938 22.682-575.388-39.535-194.62-77.838-318.278-231.649-318.278-529.34 0-107.946 16.26-217.622 46.275-324.018 101.204 163.603 389.406 468.368 864.82 468.368 364.504 0 677.155-211.577 847.408-399.41 18.856 84.488 28.876 170.343 28.876 255.06Z" opacity=".3" class="color371a45 svgShape"/><path fill="#371a45" d="m575.222 1697.057-34.055-12.871a1381.696 1381.696 0 0 1 19.107-53.728l34.543 11.5a484.148 484.148 0 0 1-19.595 55.099Z" class="color371a45 svgShape"/><path fill="#413757" d="M2219.2 1692.354c-713.714 263.623-1444.78 67.272-1660.761-2.414 84.95-199.728-6.403-370.182 87.22-486.483 160.018-198.777 505.352-247.817 742.727-247.817 249.042 0 623.898 32.787 785.962 247.817 83.29 110.511.291 353.638 44.851 488.897Z" class="color413757 svgShape"/><path fill="#371a45" d="M1124.246 2661.985c-116.55 0-225.254-7.726-318.003-44.846-221.87-88.74-329.727-267.421-329.727-546.255 0-127.372 21.75-257.473 64.649-386.69l.522-1.385a447.23 447.23 0 0 0 18.115-50.934c21.712-75.008 21.255-144.026 20.813-210.77-.559-84.62-1.088-164.547 50.872-229.08 182.954-227.3 584.07-253.745 748.035-254.565 5.717-.09 11.892-.093 18 .002 398.406 1.165 664.741 86.968 791.38 255.025 51.552 68.38 49.18 179.658 46.887 287.27-1.604 75.148-3.26 152.853 14.79 207.614 43.843 133.055 49.753 268.535 49.753 383.513 0 270.577-101.21 446.472-309.414 537.737-130.798 57.332-296.191 54.242-471.27 50.975-42.631-.796-86.713-1.619-131.247-1.619-47.124 0-93.699 1.06-138.738 2.085-42.531.968-84.465 1.923-125.417 1.923Zm-548.73-965.618c-41.517 125.281-62.564 251.28-62.564 374.517 0 265.875 97.497 428.702 306.826 512.424 118.425 47.399 269.304 43.964 429.058 40.326 45.241-1.029 92.026-2.095 139.565-2.095 44.876 0 89.129.827 131.926 1.626 178.406 3.334 332.486 6.209 455.962-47.916 196.219-86.01 287.608-246.276 287.608-504.365 0-112.086-5.694-243.95-47.923-372.108-20.007-60.695-18.283-141.576-16.616-219.795 2.163-101.405 4.4-206.264-39.556-264.562-119.411-158.468-375.99-239.39-762.62-240.521-3.168-.048-6.051-.024-8.976-.047-2.754 0-5.51 0-8.308.044-158.948.795-546.88 25.863-720.03 240.98-43.818 54.422-43.354 124.66-42.815 205.988.437 66.116.933 141.052-22.243 221.12a483.658 483.658 0 0 1-19.295 54.384Z" class="color371a45 svgShape"/><path fill="#413757" d="M513.388 1902.565s382.59 90.707 286.942 687.366c0 0-305.787 25.81-450.91-59.21-125.455-73.5-241.396-392.051-132.084-508.02s296.052-120.136 296.052-120.136Z" class="color413757 svgShape"/><path fill="#ffffff" d="M174.822 2185.636c3.69-43.679 16.898-81.938 42.54-109.083C326.674 1960.59 513.414 1956.4 513.414 1956.4s289.95 68.775 301.882 480.242c13.027-459.382-301.882-534.078-301.882-534.078s-186.74 4.19-296.052 120.152c-35.708 37.894-47.368 97.423-42.54 162.92Z" opacity=".6" class="colorfff svgShape"/><path d="M693.548 2611.981c-104.268 0-259.327-10.465-353.335-65.542-81.46-47.722-160.61-192.048-180.198-328.573-9.14-63.71-8.916-151.455 44.065-207.66 113.237-120.135 300.967-125.678 308.901-125.855l2.337-.053 2.275.54c4.138.981 102.393 25.196 188.945 125.78 78.877 91.664 162.298 267.077 111.78 582.196l-2.256 14.072-14.199 1.199c-4.663.393-47.988 3.896-108.315 3.896Zm-182.203-691.1c-21.955 1.07-184.702 12.42-280.752 114.317-33.566 35.61-45.822 98.646-34.511 177.494 17.885 124.662 90.805 260.277 162.549 302.31 121.023 70.899 364.587 61.419 425.922 57.742 34.393-230.719-1.535-416.057-104.189-536.671-71.98-84.573-154.58-111.075-169.019-115.193Z" fill="#000000" class="color000 svgShape"/><ellipse cx="388.345" cy="2276.667" fill="#ffffff" rx="157.294" ry="259.615" transform="rotate(-24.029 388.344 2276.667)" class="colorfff svgShape"/><path fill="#371a45" d="M693.548 2611.981c-104.268 0-259.327-10.465-353.335-65.542-81.46-47.722-160.61-192.048-180.198-328.573-9.14-63.71-8.916-151.455 44.065-207.66 113.237-120.135 300.967-125.678 308.901-125.855a18.583 18.583 0 0 1 4.612.487c4.138.981 102.393 25.196 188.945 125.78 78.877 91.664 162.298 267.077 111.78 582.196a18.219 18.219 0 0 1-16.455 15.27c-4.663.394-47.988 3.897-108.315 3.897Zm-182.203-691.1c-21.955 1.07-184.702 12.42-280.752 114.317-33.566 35.61-45.822 98.646-34.511 177.494 17.885 124.662 90.805 260.277 162.549 302.31 121.023 70.899 364.587 61.419 425.922 57.742 34.393-230.719-1.535-416.057-104.189-536.671-71.98-84.573-154.58-111.075-169.019-115.193Z" class="color371a45 svgShape"/><path fill="#371a45" d="M175.957 2215.228c18.356 128.031 93.052 269.59 171.392 315.5 145.156 84.99 450.91 59.211 450.91 59.211 9.747-60.85 14.529-116.417 15.258-167.156-.729 4.236-1.458 8.518-2.232 12.844 0 0-337.226 25.825-497.276-59.21-51.604-27.373-101.75-88.861-138.052-161.189Z" opacity=".3" class="color371a45 svgShape"/><path fill="#413757" d="M2286.61 1902.565s-382.59 90.707-286.942 687.366c0 0 305.788 25.81 450.91-59.21 125.456-73.5 241.396-392.051 132.085-508.02s-296.052-120.136-296.052-120.136Z" class="color413757 svgShape"/><path fill="#ffffff" d="M2625.194 2185.636c-3.689-43.679-16.897-81.938-42.54-109.083-109.312-115.962-296.052-120.152-296.052-120.152s-289.949 68.775-301.882 480.242c-13.026-459.382 301.882-534.078 301.882-534.078s186.74 4.19 296.052 120.152c35.708 37.894 47.368 97.423 42.54 162.92Z" opacity=".6" class="colorfff svgShape"/><path d="M2106.45 2611.981c-60.341 0-103.652-3.503-108.315-3.896l-14.2-1.199-2.255-14.072c-50.515-315.119 32.905-490.532 111.782-582.196 86.553-100.584 184.807-124.799 188.945-125.78l2.276-.54 2.336.053c7.935.177 195.664 5.72 308.902 125.854 52.978 56.205 53.205 143.948 44.065 207.658-19.588 136.525-98.738 280.853-180.198 328.576-94 55.071-249.07 65.542-353.338 65.542Zm-91.005-39.237c61.325 3.677 304.902 13.16 425.925-57.743 71.745-42.032 144.663-177.65 162.549-302.313 11.31-78.846-.945-141.88-34.512-177.49-96.287-102.149-258.799-113.28-280.74-114.321-14.404 4.107-97.031 30.601-169.03 115.196-102.654 120.614-138.582 305.95-104.192 536.671Z" fill="#000000" class="color000 svgShape"/><ellipse cx="2411.654" cy="2276.667" fill="#ffffff" rx="259.615" ry="157.294" transform="rotate(-65.971 2411.654 2276.667)" class="colorfff svgShape"/><path fill="#371a45" d="M2106.45 2611.981c-60.341 0-103.652-3.503-108.315-3.896a18.218 18.218 0 0 1-16.455-15.271c-50.515-315.119 32.905-490.532 111.782-582.196 86.553-100.584 184.807-124.799 188.945-125.78a18.544 18.544 0 0 1 4.612-.487c7.935.177 195.664 5.72 308.902 125.854 52.978 56.205 53.205 143.948 44.065 207.658-19.588 136.525-98.738 280.853-180.198 328.576-94 55.071-249.07 65.542-353.338 65.542Zm-91.005-39.237c61.325 3.677 304.902 13.16 425.925-57.743 71.745-42.032 144.663-177.65 162.549-302.313 11.31-78.846-.945-141.88-34.512-177.49-96.287-102.149-258.799-113.28-280.74-114.321-14.404 4.107-97.031 30.601-169.03 115.196-102.654 120.614-138.582 305.95-104.192 536.671Z" class="color371a45 svgShape"/><path fill="#371a45" d="M2624.059 2215.228c-18.355 128.031-93.051 269.59-171.391 315.5-145.157 84.99-450.91 59.211-450.91 59.211-9.747-60.85-14.53-116.417-15.259-167.156.73 4.236 1.458 8.518 2.232 12.844 0 0 337.226 25.825 497.277-59.21 51.604-27.373 101.75-88.861 138.051-161.189Z" opacity=".3" class="color371a45 svgShape"/><path fill="#371a45" d="M2212.75 1405.317c-169.889 232.97-445.991 394.387-824.346 394.387-403.86 0-660.104-180.91-790.094-307.712 3.78-114.504-13.527-212.93 47.368-288.537 158.046-196.35 496.912-246.588 733.936-247.772 2.96-.046 5.875-.046 8.79-.046s5.876 0 8.836.046c249.003.728 616.973 35.253 777.114 247.772 36.574 48.507 41.083 122.566 38.396 201.862Z" opacity=".4" class="color371a45 svgShape"/><path fill="#413757" d="M2268.772 402.111c0 .865 0 1.73-.046 2.55-1.32 134.636-110.086 243.355-243.992 243.355-134.818 0-244.084-110.086-244.084-245.905a244.07 244.07 0 0 1 4.327-46.093c21.362-113.775 120.607-199.767 239.757-199.767 134.772 0 244.038 110.086 244.038 245.86Z" class="color413757 svgShape"/><ellipse cx="2024.726" cy="406.672" fill="#feffff" rx="98.354" ry="99.088" class="colorfeffff svgShape"/><path fill="#371a45" d="M2268.726 404.662c-1.32 134.635-110.086 243.355-243.992 243.355-134.818 0-244.084-110.086-244.084-245.906a244.07 244.07 0 0 1 4.327-46.093l4.555-2.368c6.832 0 161.69-22.773 302.884 186.74 0 0 126.62 2.323 176.31-135.728Z" opacity=".4" class="color371a45 svgShape"/><path fill="#ffffff" d="M2268.817 399.697a253.086 253.086 0 0 1-1.958 31.29c-13.573-106.943-95.329-206.28-199.904-227.868-1.047 11.75-22.636 21.087-49.144 21.087-24.048 0-44.089-7.742-48.325-17.99-98.29 26.826-173.896 122.292-186.877 224.771a253.144 253.144 0 0 1-1.959-31.29c0-135.82 109.312-245.905 244.084-245.905s244.083 110.085 244.083 245.905Z" opacity=".6" class="colorfff svgShape"/><path fill="#371a45" d="M2024.727 666.22c-144.622 0-262.28-118.476-262.28-264.102s117.658-264.103 262.28-264.103 262.28 118.477 262.28 264.103-117.659 264.103-262.28 264.103Zm0-491.767c-124.531 0-225.845 102.13-225.845 227.665s101.314 227.665 225.845 227.665 225.845-102.13 225.845-227.665-101.314-227.665-225.845-227.665Z" class="color371a45 svgShape"/><ellipse cx="775.272" cy="402.118" fill="#413757" rx="244.063" ry="245.884" class="color413757 svgShape"/><path fill="#ffffff" d="M531.189 399.697a253.086 253.086 0 0 0 1.958 31.29c13.573-106.943 95.329-206.28 199.904-227.868 1.047 11.75 22.636 21.087 49.144 21.087 24.049 0 44.09-7.742 48.325-17.99 98.29 26.826 173.896 122.292 186.877 224.771a253.164 253.164 0 0 0 1.959-31.29c0-135.82-109.312-245.905-244.084-245.905S531.189 263.877 531.189 399.697Z" opacity=".6" class="colorfff svgShape"/><path fill="#371a45" d="M775.271 666.22c-144.621 0-262.28-118.476-262.28-264.102s117.659-264.103 262.28-264.103c144.622 0 262.28 118.477 262.28 264.103S919.893 666.22 775.271 666.22Zm0-491.767c-124.531 0-225.845 102.13-225.845 227.665S650.74 629.783 775.271 629.783s225.845-102.13 225.845-227.665-101.314-227.665-225.845-227.665Z" class="color371a45 svgShape"/><ellipse cx="775.272" cy="406.672" fill="#feffff" rx="98.354" ry="99.088" class="colorfeffff svgShape"/><path fill="#371a45" d="M531.234 409.952c1.321 134.635 110.086 243.354 243.993 243.354 134.817 0 244.083-110.086 244.083-245.905a244.07 244.07 0 0 0-4.327-46.093l-4.554-2.368c-6.832 0-161.69-22.774-302.884 186.74 0 0-126.62 2.323-176.31-135.728Z" opacity=".4" class="color371a45 svgShape"/><path fill="#ffffff" d="M2203.359 1118.042c24.37 294.487-449.257 610.156-824.577 610.156-354.427 0-869.386-280.505-814.649-610.156 24.832-149.553 90.454-273.002 90.454-273.002s42.742-206.509 98.968-286.156c143.073-202.674 370.795-320.56 626.548-320.56 263.995 0 503.776 105.727 648.405 316.917 53.443 78.038 87.426 302.346 87.426 302.346s76.271 125.674 87.425 260.455Z" class="colorfff svgShape"/><path fill="#ed2e7a" d="M1497.948 1257.011c-.774 26.6-9.747 166.564-109.129 167.02-103.163.455-108.856-152.945-109.13-169.843 1.55-.092 3.098-.228 4.601-.365a2.8 2.8 0 0 0 .592-.045 87.055 87.055 0 0 0 19.22-3.507h.046c56.614-14.712 85.035-62.444 85.035-62.444 15.076 41.083 52.197 58.436 88.406 65.086a104.064 104.064 0 0 0 20.36 4.098Z" class="colored2e7a svgShape"/><path fill="#371a45" d="M2210.518 1118.056c0 351.527-507.524 610.14-824.573 610.14-354.443 0-814.325-243.4-814.644-610.14-.182-169.797 69.094-260.48 69.094-260.48s8.426-25.643 21.543-62.718c-15.446 79.867-87.655 236.987-40.673 386.412 68.415 217.591 319.432 427.185 784.585 427.185 408.092 0 595.256-184.504 686.566-346.928 77.429-137.732 57.163-255.798 50.283-393.02 17.627 33.34 67.819 138.324 67.819 249.549Z" opacity=".3" class="color371a45 svgShape"/><path fill="#371a45" d="M1385.945 1746.415c-185.02 0-390.723-63.786-550.256-170.624-182.093-121.945-282.456-284.5-282.605-457.72-.174-160.068 59.109-252.169 70.905-268.905 2.522-7.588 10.164-30.395 20.774-60.384 27.525-77.831 67.249-182.487 100.174-239.064 120.144-206.392 360.266-329.61 642.329-329.61 137.026 0 263.791 27.26 376.777 81.024 117.79 56.05 214.234 138.08 286.653 243.81 58.27 85.106 97.922 278.68 103.35 306.223a363.879 363.879 0 0 1 4.8 8.9c16.367 30.96 69.89 141.281 69.89 257.99 0 164.711-107.132 325.289-301.658 452.154-166.658 108.688-374.006 176.206-541.133 176.206Zm1.32-1489.87c-268.944 0-497.294 116.45-610.837 311.502-33.164 56.987-75.205 170.371-97.314 232.886-12.888 36.428-21.326 62.075-21.411 62.33l-.96 2.926-1.87 2.446c-.625.83-65.527 88.63-65.354 249.4.14 160.694 94.766 312.508 266.446 427.481 153.772 102.98 351.897 164.46 529.98 164.46 158.015 0 362.607-66.841 521.228-170.287 106.484-69.447 285.127-216.57 285.127-421.634 0-108.322-50.293-211.876-65.706-241.034-3.366-6.436-5.449-10.014-5.573-10.223l-1.585-2.707-.595-3.094c-.406-2.11-41.028-211.952-98.208-295.466-134.495-196.365-365.35-308.986-633.367-308.986Z" class="color371a45 svgShape"/><path fill="#413757" d="M1676.24 712.9c84.865-5.303 217.348 24.457 288.989 211.279 62.435 162.817-14.571 267.133-144.495 274.418s-135.533-104.218-188.207-186.993c-50.999-80.14-118.77-83.517-118.996-152.994-.15-46.142 46.141-138.424 162.708-145.71Z" class="color413757 svgShape"/><path fill="#ffffff" d="M1809.798 960.612a18.143 18.143 0 0 1-11.88-4.415c-52.583-45.275-105.21-1.818-107.425.054a18.218 18.218 0 0 1-23.713-27.663c26.79-23.073 93.652-52.758 154.912 0a18.218 18.218 0 0 1-11.894 32.024Z" class="colorfff svgShape"/><path fill="#413757" d="M1093.503 712.9c-84.866-5.303-217.35 24.457-288.99 211.279-62.435 162.817 14.571 267.133 144.495 274.418 129.924 7.286 135.533-104.218 188.207-186.993 50.999-80.14 118.77-83.517 118.996-152.994.15-46.142-46.141-138.424-162.708-145.71Z" class="color413757 svgShape"/><path fill="#ffffff" d="M1071.75 973.158a18.148 18.148 0 0 1-11.88-4.413c-53.08-45.705-105.168-1.89-107.362 0a18.219 18.219 0 1 1-23.775-27.612c26.792-23.072 93.65-52.755 154.912 0a18.219 18.219 0 0 1-11.894 32.025Z" class="colorfff svgShape"/><path fill="#371a45" d="M1184.522 1154.818s9.75 33.443 90.246 23.15c93.944-12.012 113.656-62.174 113.656-62.174s33.877 50.933 97.174 62.663 136.202-9.665 136.202-9.665-62.759 51.14-55.686 78.018c0 0-141.753 25.538-175.178-65.508 0 0-61.423 103.074-183.26 52.943Z" opacity=".3" class="color371a45 svgShape"/><path fill="#371a45" d="M1284.443 1058.586c21.453-43.713 190.232-40.07 212.089 2.428 21.856 42.499-73.01 81.354-106.931 81.354-33.921 0-126.09-41.13-105.158-83.782Z" class="color371a45 svgShape"/><ellipse cx="1386.857" cy="1060.528" fill="#ffffff" rx="42.498" ry="14.371" class="colorfff svgShape"/><path fill="#371a45" d="M1508.487 1269.146c-53.843.003-97.513-39.43-119.344-63.775-37.544 43.567-77.112 63.704-117.83 59.908-81.833-7.631-133.222-110.923-135.368-115.317a18.218 18.218 0 0 1 32.725-16.02h.002c.437.893 44.634 89.404 106.104 95.066 32.414 2.99 65.99-18.391 99.655-63.547a18.219 18.219 0 0 1 29.561.484c.478.681 50.127 70.427 109.211 66.611 38.516-2.48 74.844-35.805 107.972-99.048a18.218 18.218 0 1 1 32.275 16.907c-39.478 75.366-85.935 115.24-138.079 118.515-2.31.145-4.612.216-6.884.216Z" class="color371a45 svgShape"/><path fill="#371a45" d="M1390.086 1435.738c-28.877 0-53.711-10.15-73.828-30.173-52.488-52.245-53.091-155.041-53.091-159.392a18.218 18.218 0 0 1 36.435-.017c.003.917.652 92.145 42.41 133.635 13.303 13.217 29.062 19.62 48.476 19.508 90.538-.42 91.065-145.576 91.06-147.043a18.218 18.218 0 0 1 18.152-18.284h.068a18.218 18.218 0 0 1 18.216 18.154c.227 63.301-26.092 183.14-127.325 183.61l-.573.002Zm-90.484-189.565Z" class="color371a45 svgShape"/><path fill="#371a45" d="M1405.575 1196.444a133.7 133.7 0 0 1 1.3 27.371c-.317 9.124-1.543 18.248-2.777 27.371-1.243 9.124-2.798 18.248-4.588 27.372-1.9 9.124-3.936 18.247-6.792 27.371a2.245 2.245 0 0 1-4.286 0c-2.855-9.124-4.893-18.247-6.791-27.371-1.79-9.124-3.346-18.248-4.588-27.372-1.235-9.123-2.46-18.247-2.778-27.371a133.707 133.707 0 0 1 1.3-27.371 15.213 15.213 0 0 1 30 0Z" class="color371a45 svgShape"/><path fill="#413757" d="m2136.54 1310.177 75.143 308.897s503.053-599.925-27.576-829.39c-515.41-222.885-585.143 87.585-580.52 148.14 12.37 162.065 94.063 304.908 532.953 372.353Z" class="color413757 svgShape"/><path fill="#371a45" d="M1603.314 923.61c12.369 162.047 94.031 304.88 532.938 372.34l75.128 308.92s211.977-252.825 215.596-492.985c-454.074 152.106-725.084-158.355-806.013-271.612-15.083 35.42-18.825 67.713-17.65 83.338Z" opacity=".4" class="color371a45 svgShape"/><path fill="#ffffff" d="M1648.08 825.627a62.067 62.067 0 0 1 12.81-3.518 80.842 80.842 0 0 1 12.796-1.342 109.124 109.124 0 0 1 25.889 2.33 102.923 102.923 0 0 1 25.163 8.309c7.952 4.097 15.467 9.446 20.733 16.485a2.251 2.251 0 0 1-2.32 3.54l-.148-.036a99.72 99.72 0 0 0-22.789-2.702 179.24 179.24 0 0 0-22.056 1.413c-7.302.79-14.593 2.294-21.874 3.157-3.643.452-7.297.943-10.965 1.213a81.698 81.698 0 0 1-10.758.443l-1.725-.091a15.138 15.138 0 0 1-4.756-29.2ZM1621.526 950.52a69.942 69.942 0 0 1 13.584-5.105 91.539 91.539 0 0 1 13.773-2.804 125.01 125.01 0 0 1 28.294-.345 122.189 122.189 0 0 1 28.018 6.014c9.02 3.429 17.635 8.108 24.513 14.552a2.234 2.234 0 0 1-1.777 3.85l-.14-.016a138.806 138.806 0 0 0-25.364-.732 221.482 221.482 0 0 0-24.191 3.356c-7.973 1.568-15.81 3.737-23.7 5.426-3.942.868-7.889 1.76-11.86 2.478a107.503 107.503 0 0 1-11.663 1.785l-1.67.119a15.104 15.104 0 0 1-7.817-28.579Z" class="colorfff svgShape"/><path fill="#ffffff" d="M1603.06 930.16a431.182 431.182 0 0 0 7.705 56.182c-1.717-110.646 116.745-345.934 572.486-148.815 150.488 65.086 223.903 190.504 243.18 293.024 5.788-134.04-50.881-265.524-242.866-348.53-515.383-222.917-585.126 87.554-580.506 148.14Z" opacity=".6" class="colorfff svgShape"/><path fill="#371a45" d="m2202.495 1658.384-80.783-332.088c-450.476-71.766-524.175-228.355-536.292-387.085-2.314-30.327 11.438-131.416 101.902-195.916 109.07-77.774 278.65-67.79 504.016 29.665 135.183 58.459 217.41 145.913 244.4 259.934 63.386 267.793-198.9 584.533-210.096 597.886ZM1867.742 728.64c-64.231 0-117.778 14.74-159.268 44.323-70.388 50.189-89.025 133.277-86.72 163.475 7.06 92.508 37.922 156.992 100.068 209.082 81.09 67.971 217.653 115.941 417.485 146.65l12.053 1.852 69.1 284.054c62.409-83.823 228.437-331.62 179.801-536.861-24.21-102.18-99.37-181.18-223.386-234.81-119.702-51.764-223.835-77.765-309.133-77.765Z" class="color371a45 svgShape"/><path fill="#413757" d="m653.814 1310.177-75.143 308.897s-503.053-599.926 27.576-829.391c515.411-222.884 585.143 87.586 580.52 148.141-12.37 162.065-94.063 304.908-532.953 372.353Z" class="color413757 svgShape"/><path fill="#371a45" d="M1187.04 923.61c-12.369 162.046-94.031 304.88-532.938 372.34l-75.128 308.92s-211.977-252.825-215.595-492.985c454.073 152.106 725.084-158.355 806.012-271.612 15.083 35.42 18.825 67.713 17.65 83.338Z" opacity=".4" class="color371a45 svgShape"/><path fill="#ffffff" d="M1135.793 854.918a81.698 81.698 0 0 1-10.758-.442c-3.668-.27-7.322-.761-10.966-1.213-7.28-.863-14.571-2.369-21.873-3.157a179.121 179.121 0 0 0-22.056-1.413 99.722 99.722 0 0 0-22.789 2.702l-.139.034a2.251 2.251 0 0 1-2.328-3.538c5.265-7.039 12.78-12.388 20.732-16.485a102.902 102.902 0 0 1 25.163-8.308 109.062 109.062 0 0 1 25.889-2.33 80.772 80.772 0 0 1 12.796 1.341 62.103 62.103 0 0 1 12.81 3.517 15.14 15.14 0 0 1-4.74 29.204ZM1159.34 978.98a107.503 107.503 0 0 1-11.662-1.786c-3.971-.718-7.918-1.61-11.86-2.478-7.89-1.689-15.727-3.858-23.7-5.426a221.634 221.634 0 0 0-24.19-3.357 138.8 138.8 0 0 0-25.365.733l-.127.015a2.234 2.234 0 0 1-1.79-3.849c6.878-6.444 15.492-11.124 24.513-14.552a122.221 122.221 0 0 1 28.018-6.014 125.08 125.08 0 0 1 28.294.345 91.54 91.54 0 0 1 13.773 2.804 69.91 69.91 0 0 1 13.584 5.104 15.107 15.107 0 0 1-7.805 28.583Z" class="colorfff svgShape"/><path fill="#ffffff" d="M1187.295 930.16a431.165 431.165 0 0 1-7.706 56.182c1.717-110.647-116.745-345.934-572.486-148.815-150.488 65.086-223.903 190.504-243.18 293.023-5.788-134.039 50.881-265.524 242.866-348.53 515.383-222.916 585.126 87.555 580.506 148.14Z" opacity=".6" class="colorfff svgShape"/><path fill="#371a45" d="m587.86 1658.384-23.148-27.604c-11.196-13.353-273.481-330.093-210.095-597.886 26.99-114.02 109.216-201.476 244.4-259.934 225.363-97.455 394.94-107.439 504.015-29.665 90.464 64.5 104.217 165.588 101.902 195.915-12.116 158.73-85.815 315.32-536.291 387.086ZM922.612 728.64c-85.303 0-189.42 25.995-309.134 77.765-124.045 53.643-199.211 132.669-223.406 234.883-48.623 205.427 117.405 453.054 179.817 536.808l69.104-284.074 12.054-1.853c199.831-30.708 336.391-78.678 417.485-146.649 62.146-52.09 93.008-116.573 100.068-209.083 2.305-30.198-16.33-113.285-86.72-163.474-41.485-29.58-95.05-44.323-159.268-44.323Z" class="color371a45 svgShape"/></svg>